<svg width="98" height="254" viewBox="0 0 98 254" fill="none" xmlns="http://www.w3.org/2000/svg">
<path d="M9.11149 14.2344C16.1383 5.71795 33.9061 -7.37604 48.7627 8.37933C63.6194 24.1347 43.5763 53.6228 31.6976 66.3974C25.842 69.9459 13.6287 75.9784 11.6211 71.7202C9.11148 66.3974 7.60573 55.2196 28.1842 45.6387C41.4013 39.961 69.9435 33.9286 78.3757 55.2196C82.2237 64.4457 82.8929 85.8787 54.7857 97.8017L19.6517 113.238M19.6517 113.238C6.2673 113.774 -12.9728 107.392 17.1421 77.5752C26.6785 72.9621 49.7666 63.6296 65.8279 63.2038C75.0296 65.1554 92.7305 74.8074 89.9198 97.8017C90.2544 102.415 83.9972 113.876 56.2915 122.819C49.9339 124.238 35.713 127.183 29.69 127.609L8.10771 130.803L19.6517 113.238ZM19.6517 113.238C28.4342 110.754 49.1618 106.531 61.8126 109.512C77.626 113.238 83.8968 110.044 96.4447 130.803C98.6196 141.448 97.047 163.272 73.3566 165.401C49.6662 167.53 34.3746 163.449 29.69 161.143V141.448M29.69 141.448C46.9224 143.045 83.8968 141.874 93.9351 124.415C98.7869 111.996 99.155 86.6239 61.8126 84.4948C52.7781 84.8496 33.5046 85.9852 28.6862 87.6884L29.69 125.48C47.257 127.077 84.198 134.635 91.4255 152.094C95.2735 162.207 96.5451 183.498 70.847 187.756C61.3107 188.111 39.7284 186.798 29.69 178.708M29.69 141.448V178.708M29.69 141.448C40.5648 144.11 64.5229 151.455 73.3566 159.546C84.0641 168.417 99.7573 190.418 76.87 207.45C69.6759 210.112 50.5696 212.241 31.6976 199.466M29.69 178.708L31.6976 199.466M29.69 178.708C41.736 187.224 66.3298 207.876 68.3375 222.354C69.174 231.225 66.9321 249.713 51.2724 252.694C47.257 253.404 37.3191 253.333 29.69 247.371L31.6976 199.466" stroke="#84829A"/>
</svg>
