<svg width="48" height="48" viewBox="0 0 48 48" fill="none" xmlns="http://www.w3.org/2000/svg">
<rect x="0.153442" width="47" height="48" rx="13" fill="#F15A2B"/>
<path d="M32.9718 31.9286C32.5217 31.9378 32.0795 31.809 31.7047 31.5595C31.4257 31.3772 31.0997 31.2802 30.7664 31.2802C30.4332 31.2802 30.1071 31.3772 29.8281 31.5595C29.4495 31.8006 29.01 31.9286 28.5612 31.9286C28.1123 31.9286 27.6728 31.8006 27.2942 31.5595C27.0152 31.377 26.6891 31.2799 26.3558 31.2799C26.0224 31.2799 25.6963 31.377 25.4173 31.5595C25.0387 31.8006 24.5992 31.9286 24.1504 31.9286C23.7015 31.9286 23.262 31.8006 22.8834 31.5595C22.6046 31.3772 22.2787 31.28 21.9456 31.28C21.6125 31.28 21.2866 31.3772 21.0078 31.5595C20.6645 31.7876 20.2639 31.9144 19.8519 31.9253L19.8292 31.2767C20.1336 31.2695 20.4291 31.1732 20.6793 30.9997C21.0578 30.7587 21.4972 30.6307 21.9459 30.6307C22.3946 30.6307 22.8341 30.7587 23.2126 30.9997C23.4915 31.1821 23.8176 31.2792 24.1508 31.2792C24.4841 31.2792 24.8102 31.1821 25.0891 30.9997C25.4678 30.7585 25.9074 30.6304 26.3564 30.6304C26.8054 30.6304 27.245 30.7585 27.6237 30.9997C27.9027 31.1821 28.2287 31.2792 28.562 31.2792C28.8953 31.2792 29.2213 31.1821 29.5003 30.9997C29.8789 30.7588 30.3184 30.6308 30.7672 30.6308C31.216 30.6308 31.6556 30.7588 32.0342 30.9997C32.3138 31.1825 32.6407 31.2799 32.9747 31.2799C33.3088 31.2799 33.6357 31.1825 33.9153 30.9997C34.2897 30.751 34.7311 30.6224 35.1805 30.6313V31.2799C34.8459 31.2708 34.5171 31.3686 34.2419 31.5592C33.8661 31.809 33.423 31.9379 32.9718 31.9286Z" fill="white"/>
<path d="M15.3319 31.9285C14.8818 31.9378 14.4397 31.809 14.0651 31.5594C13.7899 31.3686 13.4611 31.2707 13.1265 31.2798V30.6312C13.5766 30.6218 14.0189 30.7506 14.3936 31.0002C14.6686 31.191 14.9973 31.289 15.3319 31.2798C15.6666 31.289 15.9955 31.1909 16.2705 30.9999C16.6444 30.7504 17.0859 30.6217 17.5353 30.6312C17.9739 30.6213 18.4051 30.7442 18.7726 30.9837L18.4454 31.5435C18.177 31.3628 17.8588 31.2706 17.5353 31.2798C17.202 31.2708 16.8745 31.3685 16.6006 31.5587C16.2256 31.809 15.7827 31.9381 15.3319 31.9285Z" fill="white"/>
<path d="M32.9728 29.6579C32.5224 29.6671 32.0799 29.5383 31.7047 29.2888C31.4255 29.1064 31.0992 29.0092 30.7657 29.0092C30.4321 29.0092 30.1058 29.1064 29.8266 29.2888C29.448 29.5298 29.0085 29.6578 28.5598 29.6578C28.111 29.6578 27.6715 29.5298 27.293 29.2888C27.0141 29.1065 26.6882 29.0094 26.355 29.0094C26.0218 29.0094 25.6959 29.1065 25.4171 29.2888C25.0385 29.5299 24.599 29.6579 24.1503 29.6579C23.7015 29.6579 23.262 29.5299 22.8834 29.2888C22.6046 29.1065 22.2787 29.0094 21.9455 29.0094C21.6123 29.0094 21.2864 29.1065 21.0075 29.2888C20.6329 29.5384 20.1908 29.6672 19.7407 29.6579C19.2907 29.6672 18.8485 29.5384 18.4739 29.2888C18.1991 29.0981 17.8704 29.0001 17.536 29.0093C17.2016 29.0002 16.8731 29.0981 16.5984 29.2888C16.2243 29.5381 15.7829 29.6669 15.3335 29.6579C14.8833 29.6672 14.4411 29.5384 14.0664 29.2888C13.7909 29.0977 13.4616 28.9997 13.1265 29.0093V28.3606C13.5765 28.3513 14.0186 28.4801 14.3933 28.7297C14.6684 28.9204 14.9972 29.0184 15.3319 29.0093C15.6662 29.0183 15.9947 28.9204 16.2695 28.7297C16.6435 28.4804 17.0849 28.3516 17.5344 28.3606C17.9848 28.351 18.4273 28.4799 18.8021 28.7297C19.0771 28.9205 19.4059 29.0184 19.7404 29.0093C20.075 29.0184 20.4037 28.9205 20.6787 28.7297C21.0572 28.4886 21.4967 28.3605 21.9455 28.3605C22.3943 28.3605 22.8338 28.4886 23.2123 28.7297C23.4912 28.9121 23.8172 29.0092 24.1504 29.0092C24.4836 29.0092 24.8096 28.9121 25.0885 28.7297C25.4671 28.4886 25.9065 28.3605 26.3553 28.3605C26.8041 28.3605 27.2436 28.4886 27.6221 28.7297C27.901 28.9121 28.227 29.0092 28.5603 29.0092C28.8935 29.0092 29.2195 28.9121 29.4984 28.7297C29.8773 28.4887 30.3171 28.3607 30.7661 28.3607C31.2152 28.3607 31.655 28.4887 32.0339 28.7297C32.3133 28.912 32.6397 29.0091 32.9733 29.0091C33.3069 29.0091 33.6334 28.912 33.9127 28.7297C34.2878 28.4803 34.7302 28.3515 35.1805 28.3606V29.0093C34.8452 28.9998 34.5157 29.0977 34.24 29.2888C33.8651 29.5381 33.423 29.6669 32.9728 29.6579Z" fill="white"/>
<path d="M32.9719 27.388C32.5217 27.3972 32.0795 27.2684 31.7047 27.0189C31.4296 26.8282 31.1008 26.7303 30.7661 26.7394C30.5206 26.7309 30.2767 26.7833 30.0562 26.8918L29.7701 26.308C30.0798 26.1563 30.4214 26.0814 30.7661 26.0897C31.2168 26.0806 31.6595 26.2097 32.0346 26.4598C32.3142 26.6426 32.641 26.7399 32.9751 26.7399C33.3092 26.7399 33.636 26.6426 33.9157 26.4598C34.2899 26.2109 34.7312 26.0821 35.1805 26.0907V26.7394C34.8459 26.7302 34.5171 26.828 34.2419 27.0186C33.8662 27.2685 33.423 27.3974 32.9719 27.388Z" fill="white"/>
<path d="M28.5578 27.3879C28.1084 27.3973 27.6669 27.2686 27.293 27.0191C27.014 26.8366 26.6879 26.7395 26.3545 26.7395C26.0212 26.7395 25.6951 26.8366 25.4161 27.0191C25.0375 27.2602 24.5979 27.3882 24.1491 27.3882C23.7003 27.3882 23.2608 27.2602 22.8821 27.0191C22.6032 26.8367 22.2771 26.7396 21.9439 26.7396C21.6106 26.7396 21.2846 26.8367 21.0056 27.0191C20.631 27.2683 20.1892 27.397 19.7394 27.3879C19.2894 27.3972 18.8473 27.2684 18.4726 27.0188C18.1975 26.8281 17.8687 26.7301 17.534 26.7392C17.2007 26.7302 16.8732 26.828 16.5993 27.0181C16.2246 27.2682 15.7822 27.3972 15.3319 27.3879C14.8818 27.3972 14.4397 27.2684 14.0651 27.0188C13.7899 26.8281 13.4611 26.7301 13.1265 26.7392V26.0906C13.5766 26.0812 14.0189 26.21 14.3936 26.4597C14.6686 26.6504 14.9973 26.7484 15.3319 26.7392C15.6666 26.7484 15.9955 26.6503 16.2705 26.4593C16.6444 26.2098 17.0859 26.0811 17.5353 26.0906C17.9854 26.0813 18.4275 26.2101 18.8021 26.4597C19.0771 26.6504 19.4059 26.7484 19.7404 26.7392C20.0751 26.7483 20.4039 26.6504 20.679 26.4597C21.0576 26.2186 21.4971 26.0906 21.946 26.0906C22.3948 26.0906 22.8343 26.2186 23.213 26.4597C23.4919 26.642 23.818 26.7391 24.1512 26.7391C24.4845 26.7391 24.8105 26.642 25.0895 26.4597C25.4682 26.2184 25.9078 26.0903 26.3568 26.0903C26.8058 26.0903 27.2454 26.2184 27.6241 26.4597C27.9098 26.6518 28.2487 26.7495 28.5928 26.7389C28.6179 26.7392 28.6429 26.7379 28.6678 26.735L28.754 27.3778C28.6889 27.3854 28.6234 27.3888 28.5578 27.3879Z" fill="white"/>
<path d="M32.9728 25.1174C32.5224 25.1266 32.0799 24.9978 31.7047 24.7483C31.4255 24.5658 31.0992 24.4687 30.7657 24.4687C30.4321 24.4687 30.1058 24.5658 29.8266 24.7483C29.448 24.9893 29.0085 25.1173 28.5598 25.1173C28.111 25.1173 27.6715 24.9893 27.293 24.7483C27.0141 24.5659 26.6882 24.4688 26.355 24.4688C26.0218 24.4688 25.6959 24.5659 25.4171 24.7483C25.0385 24.9893 24.599 25.1174 24.1503 25.1174C23.7015 25.1174 23.262 24.9893 22.8834 24.7483C22.6046 24.5659 22.2787 24.4688 21.9455 24.4688C21.6123 24.4688 21.2864 24.5659 21.0075 24.7483C20.6329 24.9979 20.1908 25.1267 19.7407 25.1174C19.2907 25.1267 18.8485 24.9979 18.4739 24.7483C18.1991 24.5575 17.8704 24.4596 17.536 24.4687C17.2016 24.4596 16.8731 24.5576 16.5984 24.7483C16.2243 24.9976 15.7829 25.1264 15.3335 25.1174C14.8833 25.1267 14.4411 24.9979 14.0664 24.7483C13.7909 24.5572 13.4616 24.4592 13.1265 24.4687V23.8201C13.5765 23.8108 14.0186 23.9396 14.3933 24.1892C14.6684 24.3799 14.9972 24.4778 15.3319 24.4687C15.6662 24.4778 15.9947 24.3799 16.2695 24.1892C16.6435 23.9398 17.0849 23.811 17.5344 23.8201C17.9848 23.8105 18.4273 23.9393 18.8021 24.1892C19.0771 24.3799 19.4059 24.4779 19.7404 24.4687C20.075 24.4779 20.4037 24.3799 20.6787 24.1892C21.0572 23.9481 21.4967 23.82 21.9455 23.82C22.3943 23.82 22.8338 23.9481 23.2123 24.1892C23.4912 24.3715 23.8172 24.4687 24.1504 24.4687C24.4836 24.4687 24.8096 24.3715 25.0885 24.1892C25.4671 23.9481 25.9065 23.82 26.3553 23.82C26.8041 23.82 27.2436 23.9481 27.6221 24.1892C27.901 24.3715 28.227 24.4687 28.5603 24.4687C28.8935 24.4687 29.2195 24.3715 29.4984 24.1892C29.8773 23.9482 30.3171 23.8202 30.7661 23.8202C31.2152 23.8202 31.655 23.9482 32.0339 24.1892C32.3133 24.3715 32.6397 24.4686 32.9733 24.4686C33.3069 24.4686 33.6334 24.3715 33.9127 24.1892C34.2878 23.9397 34.7302 23.8109 35.1805 23.8201V24.4687C34.8452 24.4592 34.5157 24.5572 34.24 24.7483C33.8651 24.9976 33.423 25.1264 32.9728 25.1174Z" fill="white"/>
<path d="M28.3513 24.8423L27.7393 24.6276C27.8969 24.1748 27.9613 23.6947 27.9286 23.2163C27.8958 22.738 27.7667 22.2711 27.5489 21.844L25.3211 17.4815C25.2991 17.4384 25.287 17.3909 25.2857 17.3426C25.2845 17.2942 25.294 17.2462 25.3137 17.202C25.3334 17.1578 25.3627 17.1186 25.3995 17.0872C25.4363 17.0558 25.4797 17.0331 25.5264 17.0206L29.9661 15.8368C30.1108 15.799 30.2346 15.7056 30.3108 15.5768C30.3869 15.4481 30.4091 15.2946 30.3726 15.1495C30.3361 15.0045 30.2438 14.8798 30.1158 14.8025C29.9878 14.7252 29.8344 14.7015 29.6891 14.7367L24.3157 16.021C24.2008 16.0482 24.0937 16.1014 24.0028 16.1766C23.9118 16.2518 23.8393 16.3469 23.791 16.4546C23.7426 16.5623 23.7198 16.6796 23.7241 16.7976C23.7284 16.9155 23.7598 17.0309 23.8159 17.1348L25.4116 20.0991C25.4521 20.1744 25.4611 20.2627 25.4368 20.3447C25.4125 20.4267 25.3568 20.4958 25.2819 20.5369L23.2224 21.6721L22.9094 21.1038L24.6874 20.1237L23.2454 17.4422C23.1423 17.2508 23.0845 17.0382 23.0767 16.8209C23.0688 16.6036 23.111 16.3874 23.2 16.189C23.2891 15.9906 23.4225 15.8154 23.5901 15.6768C23.7577 15.5382 23.9549 15.4401 24.1665 15.3899L29.5373 14.1059C29.85 14.0269 30.1812 14.0753 30.4582 14.2406C30.7351 14.4058 30.9351 14.6743 31.0141 14.9869C31.0931 15.2996 31.0447 15.6308 30.8795 15.9078C30.7142 16.1848 30.4458 16.3847 30.1331 16.4637L26.081 17.5437L28.1268 21.5485C28.3844 22.054 28.5371 22.6064 28.5757 23.1725C28.6143 23.7385 28.5379 24.3065 28.3513 24.8423Z" fill="white"/>
<path d="M21.7757 21.7338L17.8345 23.9055L18.1474 24.4733L22.0886 22.3016L21.7757 21.7338Z" fill="white"/>
<path d="M31.2886 22.6849C30.8075 22.6849 30.3373 22.5423 29.9372 22.275C29.5372 22.0077 29.2255 21.6278 29.0414 21.1834C28.8573 20.7389 28.8091 20.2498 28.9029 19.778C28.9968 19.3061 29.2285 18.8727 29.5686 18.5325C29.9088 18.1923 30.3422 17.9607 30.8141 17.8668C31.2859 17.773 31.775 17.8211 32.2195 18.0052C32.664 18.1893 33.0438 18.5011 33.3111 18.9011C33.5784 19.3011 33.7211 19.7714 33.7211 20.2525C33.7204 20.8974 33.4639 21.5157 33.0079 21.9717C32.5518 22.4278 31.9335 22.6842 31.2886 22.6849ZM31.2886 18.4687C30.9358 18.4687 30.591 18.5733 30.2976 18.7693C30.0043 18.9653 29.7756 19.2439 29.6406 19.5699C29.5056 19.8958 29.4703 20.2545 29.5391 20.6005C29.608 20.9465 29.7778 21.2644 30.0273 21.5138C30.2768 21.7633 30.5946 21.9332 30.9406 22.002C31.2867 22.0708 31.6453 22.0355 31.9713 21.9005C32.2972 21.7655 32.5758 21.5369 32.7718 21.2435C32.9678 20.9502 33.0724 20.6053 33.0724 20.2525C33.0718 19.7796 32.8837 19.3262 32.5493 18.9918C32.2149 18.6574 31.7615 18.4693 31.2886 18.4687Z" fill="white"/>
</svg>
