<svg width="168" height="154" viewBox="0 0 168 154" fill="none" xmlns="http://www.w3.org/2000/svg">
<path d="M47.9586 72.9999C47.9586 82.9411 56.0175 90.9999 65.9586 90.9999L92.9586 90.9999C95.72 90.9999 97.9586 88.7614 97.9586 85.9999L97.9586 51.9999C97.9586 46.4771 93.4815 41.9999 87.9586 41.9999L52.9586 41.9999C50.1972 41.9999 47.9586 44.2385 47.9586 46.9999L47.9586 72.9999Z" fill="#FFF1DA"/>
<path d="M96.5425 86.9413C95.1842 87.2456 93.8612 87.8091 92.6556 88.5965C89.5148 90.5978 87.6875 93.4546 88.5745 94.9767C89.4614 96.4988 92.7265 96.1095 95.8673 94.1082C97.0891 93.3486 98.1744 92.3779 99.0566 91.2559C99.466 90.7138 99.5395 90.0383 99.2442 89.5334L98.092 87.556C97.7989 87.0495 97.1908 86.8086 96.5425 86.9413Z" fill="#D5D6DB"/>
<path d="M88.6555 59.9482C87.6706 60.169 86.7111 60.5778 85.8369 61.1488C83.56 62.5996 82.2343 64.671 82.8769 65.7738C83.5195 66.8766 85.8879 66.5941 88.1645 65.1434C89.0504 64.5923 89.8374 63.8881 90.4772 63.0744C90.7736 62.6815 90.8268 62.1922 90.6128 61.8261L89.7785 60.3943C89.5662 60.0271 89.1256 59.8521 88.6555 59.9482Z" fill="#D5D6DB"/>
<path d="M75.8414 61.0787C75.6222 61.0542 75.3884 61.1126 75.1856 61.2421L69.8374 64.6503C69.3901 64.9346 69.2111 65.4819 69.438 65.8731C69.4899 65.9627 69.5609 66.0393 69.6471 66.0983L82.8288 75.1832L100.662 63.8185L75.8414 61.0787Z" fill="#029BC5"/>
<path d="M132.218 59.794L83.6863 90.3461L54.9736 101.772L40.3304 104.682L38.7195 101.945L119.615 51.9985C122.025 50.5036 124.711 49.586 127.4 49.3389C128.577 49.237 129.74 49.2762 130.861 49.455C131.855 49.6057 132.798 49.8964 133.662 50.3185C134.626 50.7967 136.461 50.8519 137.055 51.8047C137.057 51.8032 138.459 56.1776 132.218 59.794Z" fill="#E1E6E9"/>
<path d="M84.3297 86.3036L63.3344 119.774C63.0721 120.244 63.2278 120.77 63.6817 120.949C63.9602 121.059 64.3012 121.016 64.5876 120.834L69.9316 117.444C70.9594 116.791 71.8696 115.963 72.6057 115.009L113.322 67.1404L84.3297 86.3036Z" fill="#029BC5"/>
<path d="M31.3501 85.1861C30.9998 85.0664 30.5831 85.1285 30.2312 85.3525L25.8137 88.1659C25.2118 88.549 24.972 89.2854 25.2778 89.8111C25.3361 89.911 25.4118 89.999 25.5025 90.0714L37.8793 99.9838L50.8923 91.8557L31.3501 85.1861Z" fill="#029BC5"/>
<path d="M42.0277 101.771L35.3663 111.1C35.2686 111.234 35.2916 111.403 35.4175 111.476C35.5084 111.529 35.6324 111.519 35.7332 111.452L39.8614 108.836C39.8935 108.815 39.9225 108.79 39.9465 108.761L49.6801 96.9261L42.0277 101.771Z" fill="#029BC5"/>
<path d="M130.065 49.8572C128.91 49.6718 127.713 49.6322 126.5 49.7388C125.319 51.3899 124.564 53.2446 124.311 55.118C124.292 55.4943 124.596 55.7652 124.989 55.723C125.111 55.7098 125.232 55.6669 125.342 55.5981L132.949 50.7538C132.06 50.3152 131.089 50.0134 130.065 49.8572Z" fill="#029BC5"/>
<path d="M113.486 58.7653L118.453 55.6284L123.079 63.4974L118.112 66.6343L113.486 58.7653Z" fill="#D5D6DB"/>
<path d="M110.36 61.8775C109.762 62.2567 109.522 62.9855 109.826 63.5052L110.318 64.3472C110.642 64.8536 111.382 64.9427 111.97 64.546C112.53 64.1682 112.755 63.4815 112.485 62.9745L111.993 62.1325C111.689 61.6132 110.959 61.499 110.36 61.8775Z" fill="#3A556A"/>
<path d="M105.896 64.65C105.297 65.0291 105.058 65.7579 105.362 66.2777L105.854 67.1196C106.178 67.6261 106.917 67.7152 107.506 67.3185C108.065 66.9407 108.291 66.254 108.021 65.747L107.529 64.905C107.225 64.3859 106.494 64.2716 105.896 64.65Z" fill="#3A556A"/>
<path d="M101.43 67.4233C100.832 67.803 100.594 68.5309 100.897 69.0501L101.39 69.8921C101.713 70.3986 102.453 70.4876 103.041 70.0909C103.601 69.7131 103.826 69.0265 103.556 68.5195L103.064 67.6775C102.76 67.1578 102.029 67.044 101.43 67.4233Z" fill="#3A556A"/>
<path d="M96.9655 70.1957C96.3676 70.5754 96.1292 71.3033 96.4329 71.8226L96.9252 72.6646C97.249 73.171 97.9883 73.2601 98.5766 72.8634C99.1364 72.4856 99.3618 71.7989 99.092 71.2919L98.5997 70.4499C98.2956 69.9304 97.564 69.8166 96.9655 70.1957Z" fill="#3A556A"/>
<path d="M92.5015 72.9684C91.9033 73.3482 91.6648 74.0764 91.9686 74.5959L92.4612 75.4383C92.7648 75.9575 93.4961 76.0712 94.0945 75.6923C94.6928 75.3133 94.9317 74.5851 94.6281 74.0658L94.1355 73.2235C93.8326 72.7037 93.1016 72.5892 92.5028 72.9676C92.5023 72.9679 92.502 72.9681 92.5015 72.9684Z" fill="#3A556A"/>
<path d="M88.0372 75.7408C87.4389 76.1207 87.2004 76.8489 87.5042 77.3684L87.9968 78.2107C88.3005 78.73 89.0317 78.8437 89.6301 78.4647C90.2285 78.0857 90.4674 77.3575 90.1637 76.8383L89.6711 75.9959C89.3682 75.4762 88.6372 75.3617 88.0384 75.74C88.0379 75.7404 88.0374 75.7407 88.0372 75.7408Z" fill="#3A556A"/>
<path d="M83.5726 78.5134C82.9743 78.8932 82.7358 79.6214 83.0396 80.1409L83.5322 80.9832C83.8366 81.502 84.5682 81.6145 85.166 81.2351C85.7627 80.8562 86.0011 80.1296 85.6988 79.6109L85.2062 78.7686C84.9027 78.249 84.1714 78.1347 83.5726 78.5134Z" fill="#3A556A"/>
<path d="M79.108 81.2859C78.5097 81.6657 78.2712 82.3939 78.575 82.9134L79.0676 83.7558C79.372 84.2746 80.1036 84.3871 80.7014 84.0076C81.2981 83.6288 81.5365 82.9021 81.2342 82.3835L80.7416 81.5411C80.4381 81.0215 79.7068 80.9072 79.108 81.2859Z" fill="#3A556A"/>
<path d="M74.6437 84.0583C74.0455 84.4381 73.807 85.1663 74.1108 85.6858L74.6034 86.5281C74.9078 87.0469 75.6394 87.1595 76.2371 86.78C76.8338 86.4011 77.0722 85.6745 76.77 85.1559L76.2774 84.3136C75.9736 83.7941 75.2423 83.6798 74.6437 84.0583Z" fill="#3A556A"/>
<path d="M70.1779 86.8315C69.5795 87.2105 69.3407 87.9387 69.6443 88.458L69.645 88.4591L70.1375 89.3014C70.442 89.8202 71.1736 89.9328 71.7713 89.5533C72.368 89.1744 72.6064 88.4478 72.3041 87.9291L71.8116 87.0868C71.508 86.5671 70.7768 86.4528 70.1779 86.8315Z" fill="#3A556A"/>
<path d="M65.7147 89.6032C65.1163 89.9822 64.8774 90.7104 65.1811 91.2296L65.1817 91.2307L65.6743 92.073C65.9787 92.5918 66.7104 92.7044 67.3081 92.3249C67.9048 91.9461 68.1432 91.2194 67.8409 90.7008L67.3483 89.8585C67.0445 89.339 66.3133 89.2247 65.7147 89.6032Z" fill="#3A556A"/>
</svg>
