<svg width="78" height="66" viewBox="0 0 78 66" fill="none" xmlns="http://www.w3.org/2000/svg">
<path d="M27.1533 48C27.1533 57.9411 35.2122 66 45.1533 66L72.1533 66C74.9147 66 77.1533 63.7614 77.1533 61L77.1533 27C77.1533 21.4772 72.6762 17 67.1533 17L32.1533 17C29.3919 17 27.1533 19.2386 27.1533 22L27.1533 48Z" fill="#FFF1DA"/>
<path d="M50.1533 27.8482V22.1518C50.1533 21.0351 49.2481 20.1299 48.1314 20.1299H45.9527C45.0816 20.1299 44.3086 19.5717 44.0348 18.7448C43.7298 17.8235 43.3591 16.9322 42.9286 16.0763C42.5364 15.2967 42.6865 14.3542 43.3035 13.7371L44.8449 12.1957C45.6346 11.406 45.6346 10.1259 44.8449 9.33622L40.817 5.30825C40.0273 4.51861 38.7472 4.51861 37.9575 5.30825L36.4161 6.8497C35.799 7.4668 34.8565 7.6168 34.0769 7.22465C33.221 6.79406 32.3297 6.42344 31.4084 6.11841C30.5815 5.84457 30.0233 5.07163 30.0233 4.2005V2.02193C30.0233 0.905231 29.1181 0 28.0014 0H22.305C21.1883 0 20.2831 0.905231 20.2831 2.02193V4.2006C20.2831 5.07173 19.7249 5.84467 18.898 6.11851C17.9767 6.42354 17.0854 6.79417 16.2295 7.22475C15.4499 7.6169 14.5074 7.4668 13.8903 6.8498L12.3489 5.30835C11.5592 4.51871 10.2791 4.51871 9.48942 5.30835L5.46165 9.33632C4.67201 10.126 4.67201 11.4061 5.46165 12.1958L7.0031 13.7372C7.6201 14.3543 7.7702 15.2968 7.37805 16.0764C6.94747 16.9323 6.57684 17.8236 6.27181 18.7449C6.07825 19.3293 5.6355 19.7794 5.08499 19.9932C4.85652 20.0819 4.71004 20.2305 4.45451 20.2305H2.27584C1.15914 20.2305 0.253906 21.1357 0.253906 22.2524V27.7476C0.253906 28.8643 1.15914 29.7695 2.27584 29.7695H4.45451C5.32564 29.7695 6.09857 30.4283 6.37242 31.2552C6.67745 32.1765 7.04807 33.0677 7.47865 33.9237C7.87081 34.7033 7.72071 35.6458 7.1037 36.2629L5.66286 37.8043C4.87322 38.594 4.87322 39.8741 5.66286 40.6638L9.48962 44.4905C10.2793 45.2802 11.5594 45.2802 12.3491 44.4905L13.8905 42.9491C14.5075 42.332 15.4501 42.182 16.2297 42.5741C17.0856 43.0047 18.1782 43.476 19.0994 43.781C19.9263 44.0548 20.4845 44.8278 20.4845 45.6989V47.8776C20.4845 48.9943 21.3897 49.8995 22.5064 49.8995H27.901C29.0177 49.8995 29.9229 48.9943 29.9229 47.8776V45.6989C29.9229 45.4434 30.0715 45.2969 30.1602 45.0684C30.374 44.5179 30.8242 44.0751 31.4085 43.8816C32.3298 43.5766 33.2211 43.2059 34.077 42.7754C34.8566 42.3832 35.7991 42.5333 36.4162 43.1503L37.9576 44.6917C38.7473 45.4814 40.0274 45.4814 40.8171 44.6917L44.8451 40.6638C45.6347 39.8741 45.6347 38.594 44.8451 37.8043L43.3036 36.2629C42.6866 35.6458 42.5365 34.7033 42.9287 33.9237C43.3592 33.0678 43.7299 32.1765 44.0349 31.2552C44.3087 30.4283 45.0817 29.8701 45.9528 29.8701H48.1315C49.2481 29.8701 50.1533 28.9649 50.1533 27.8482Z" fill="#B6C4CF"/>
<path d="M30.1604 45.0684C30.0718 45.2967 30.0235 45.5442 30.0235 45.7998V47.9778C30.0235 49.0945 29.1181 50 28.0014 50H22.3052C21.1885 50 20.2831 49.0945 20.2831 47.9778V45.7998C20.2831 44.9285 19.7247 44.1549 18.8978 43.8812C17.9773 43.5764 17.0859 43.2062 16.2298 42.7756C15.4501 42.3833 14.5074 42.5332 13.8907 43.1499L12.3495 44.6911C11.5598 45.4808 10.2791 45.4808 9.48934 44.6911L5.46117 40.6639C4.67243 39.8742 4.67243 38.5935 5.46117 37.8038L7.00342 36.2625C7.62012 35.6458 7.77002 34.7032 7.37767 33.9235C6.94708 33.0674 6.57686 32.176 6.27203 31.2555C5.99839 30.4285 5.22475 29.8702 4.35352 29.8702H2.17545C1.05875 29.8702 0.15332 28.9648 0.15332 27.8481V22.1519C0.15332 21.0352 1.05875 20.1297 2.17545 20.1297H4.35352C4.60905 20.1297 4.85654 20.0815 5.08491 19.9929C5.0829 20.1187 5.08189 20.2454 5.08189 20.3722C5.08189 34.013 16.1402 45.0714 29.7811 45.0714C29.9078 45.0714 30.0346 45.0704 30.1604 45.0684Z" fill="#9FACBA"/>
<path d="M25.1533 41.5996C34.321 41.5996 41.7529 34.1677 41.7529 25C41.7529 15.8323 34.321 8.40039 25.1533 8.40039C15.9856 8.40039 8.55371 15.8323 8.55371 25C8.55371 34.1677 15.9856 41.5996 25.1533 41.5996Z" fill="#9FACBA"/>
<path d="M25.1532 38.0784C32.3762 38.0784 38.2316 32.223 38.2316 25C38.2316 17.7769 32.3762 11.9215 25.1532 11.9215C17.9301 11.9215 12.0747 17.7769 12.0747 25C12.0747 32.223 17.9301 38.0784 25.1532 38.0784Z" fill="#F8F7F7"/>
</svg>
