<svg width="48" height="48" viewBox="0 0 48 48" fill="none" xmlns="http://www.w3.org/2000/svg">
<rect x="0.153442" width="47" height="48" rx="13" fill="#006380"/>
<path d="M16.6534 26.125C16.3568 26.125 16.0668 26.213 15.8201 26.3778C15.5734 26.5426 15.3812 26.7769 15.2676 27.051C15.1541 27.3251 15.1244 27.6267 15.1823 27.9176C15.2401 28.2086 15.383 28.4759 15.5928 28.6857C15.8026 28.8954 16.0698 29.0383 16.3608 29.0962C16.6518 29.1541 16.9534 29.1244 17.2275 29.0108C17.5016 28.8973 17.7358 28.705 17.9006 28.4584C18.0655 28.2117 18.1534 27.9217 18.1534 27.625C18.1534 27.2272 17.9954 26.8456 17.7141 26.5643C17.4328 26.283 17.0513 26.125 16.6534 26.125ZM16.6534 28.375C16.5051 28.375 16.3601 28.331 16.2368 28.2486C16.1134 28.1662 16.0173 28.0491 15.9605 27.912C15.9038 27.775 15.8889 27.6242 15.9179 27.4787C15.9468 27.3332 16.0182 27.1996 16.1231 27.0947C16.228 26.9898 16.3616 26.9184 16.5071 26.8894C16.6526 26.8605 16.8034 26.8753 16.9405 26.9321C17.0775 26.9889 17.1946 27.085 17.277 27.2083C17.3595 27.3317 17.4034 27.4767 17.4034 27.625C17.4034 27.8239 17.3244 28.0147 17.1838 28.1553C17.0431 28.296 16.8524 28.375 16.6534 28.375Z" fill="white"/>
<path d="M31.6534 26.125C31.3568 26.125 31.0668 26.213 30.8201 26.3778C30.5734 26.5426 30.3812 26.7769 30.2676 27.051C30.1541 27.3251 30.1244 27.6267 30.1823 27.9176C30.2401 28.2086 30.383 28.4759 30.5928 28.6857C30.8026 28.8954 31.0698 29.0383 31.3608 29.0962C31.6518 29.1541 31.9534 29.1244 32.2275 29.0108C32.5016 28.8973 32.7358 28.705 32.9006 28.4584C33.0655 28.2117 33.1534 27.9217 33.1534 27.625C33.1534 27.2272 32.9954 26.8456 32.7141 26.5643C32.4328 26.283 32.0513 26.125 31.6534 26.125ZM31.6534 28.375C31.5051 28.375 31.3601 28.331 31.2368 28.2486C31.1134 28.1662 31.0173 28.0491 30.9605 27.912C30.9038 27.775 30.8889 27.6242 30.9179 27.4787C30.9468 27.3332 31.0182 27.1996 31.1231 27.0947C31.228 26.9898 31.3616 26.9184 31.5071 26.8894C31.6526 26.8605 31.8034 26.8753 31.9405 26.9321C32.0775 26.9889 32.1946 27.085 32.277 27.2083C32.3595 27.3317 32.4034 27.4767 32.4034 27.625C32.4034 27.8239 32.3244 28.0147 32.1838 28.1553C32.0431 28.296 31.8524 28.375 31.6534 28.375Z" fill="white"/>
<path d="M20.7784 28H27.5284V28.75H20.7784V28Z" fill="white"/>
<path d="M20.7784 26.5H27.5284V27.25H20.7784V26.5Z" fill="white"/>
<path d="M23.0284 20.875H25.2784V21.625H23.0284V20.875Z" fill="white"/>
<path d="M35.4034 24.25V23.5C35.4026 23.2019 35.2837 22.9163 35.073 22.7055C34.8622 22.4947 34.5765 22.3759 34.2784 22.375H32.7934L32.0172 19.6525L31.7847 18.7263C31.7237 18.483 31.5832 18.2672 31.3855 18.113C31.1877 17.9587 30.9442 17.875 30.6934 17.875H27.5284V16.375C27.5278 16.1763 27.4486 15.9858 27.3081 15.8453C27.1676 15.7048 26.9772 15.6256 26.7784 15.625H21.5284C21.3297 15.6256 21.1393 15.7048 20.9988 15.8453C20.8582 15.9858 20.779 16.1763 20.7784 16.375V17.875H17.6134C17.3627 17.875 17.1191 17.9587 16.9214 18.113C16.7237 18.2672 16.5832 18.483 16.5222 18.7263L16.2934 19.6487L15.5134 22.375H14.0284C13.7303 22.3759 13.4447 22.4947 13.2339 22.7055C13.0231 22.9163 12.9043 23.2019 12.9034 23.5V24.25C12.904 24.44 12.9529 24.6267 13.0454 24.7926C13.1378 24.9586 13.2709 25.0983 13.4322 25.1987C13.0932 25.5471 12.9035 26.0139 12.9034 26.5V31C12.904 31.1573 12.9376 31.3128 13.0022 31.4562C13.0668 31.5996 13.161 31.7279 13.2784 31.8325V33.25C13.2793 33.5481 13.3981 33.8337 13.6089 34.0445C13.8197 34.2553 14.1053 34.3741 14.4034 34.375H17.4034C17.7015 34.3741 17.9872 34.2553 18.198 34.0445C18.4087 33.8337 18.5276 33.5481 18.5284 33.25V32.125H29.7784V33.25C29.7793 33.5481 29.8981 33.8337 30.1089 34.0445C30.3197 34.2553 30.6053 34.3741 30.9034 34.375H33.9034C34.2015 34.3741 34.4872 34.2553 34.698 34.0445C34.9087 33.8337 35.0276 33.5481 35.0284 33.25V31.8325C35.1459 31.7279 35.24 31.5996 35.3046 31.4562C35.3693 31.3128 35.4029 31.1573 35.4034 31V26.5C35.4034 26.0139 35.2137 25.5471 34.8747 25.1987C35.0359 25.0983 35.169 24.9586 35.2615 24.7926C35.354 24.6267 35.4028 24.44 35.4034 24.25ZM21.5284 16.375H26.7784V17.875H21.5284V16.375ZM17.2497 18.91C17.2698 18.8287 17.3165 18.7565 17.3825 18.7048C17.4484 18.6532 17.5297 18.6251 17.6134 18.625H30.6934C30.7772 18.6251 30.8585 18.6532 30.9244 18.7048C30.9904 18.7565 31.0371 18.8287 31.0572 18.91L31.1734 19.375H17.1334L17.2497 18.91ZM16.9347 20.125H31.3722L32.6547 24.625H21.8697C21.7816 24.1009 21.5106 23.6251 21.1048 23.2819C20.6991 22.9387 20.1849 22.7504 19.6534 22.7504C19.122 22.7504 18.6078 22.9387 18.2021 23.2819C17.7963 23.6251 17.5253 24.1009 17.4372 24.625H15.6522L16.9347 20.125ZM21.1009 24.625H18.2059C18.2878 24.3032 18.4746 24.0179 18.7367 23.8141C18.9988 23.6103 19.3214 23.4997 19.6534 23.4997C19.9855 23.4997 20.308 23.6103 20.5702 23.8141C20.8323 24.0179 21.0191 24.3032 21.1009 24.625ZM13.6534 23.5C13.6534 23.4005 13.693 23.3052 13.7633 23.2348C13.8336 23.1645 13.929 23.125 14.0284 23.125H15.2997L14.8722 24.625H14.0284C13.929 24.625 13.8336 24.5855 13.7633 24.5152C13.693 24.4448 13.6534 24.3495 13.6534 24.25V23.5ZM17.7784 33.25C17.7784 33.3495 17.7389 33.4448 17.6686 33.5152C17.5983 33.5855 17.5029 33.625 17.4034 33.625H14.4034C14.304 33.625 14.2086 33.5855 14.1383 33.5152C14.068 33.4448 14.0284 33.3495 14.0284 33.25V32.125H17.7784V33.25ZM34.2784 33.25C34.2784 33.3495 34.2389 33.4448 34.1686 33.5152C34.0983 33.5855 34.0029 33.625 33.9034 33.625H30.9034C30.804 33.625 30.7086 33.5855 30.6383 33.5152C30.568 33.4448 30.5284 33.3495 30.5284 33.25V32.125H34.2784V33.25ZM34.6534 31C34.6534 31.0995 34.6139 31.1948 34.5436 31.2652C34.4733 31.3355 34.3779 31.375 34.2784 31.375H14.0284C13.929 31.375 13.8336 31.3355 13.7633 31.2652C13.693 31.1948 13.6534 31.0995 13.6534 31V30.625H34.6534V31ZM34.6534 29.875H13.6534V26.5C13.6543 26.2019 13.7731 25.9163 13.9839 25.7055C14.1947 25.4947 14.4803 25.3759 14.7784 25.375H33.5284C33.8265 25.3759 34.1122 25.4947 34.323 25.7055C34.5337 25.9163 34.6526 26.2019 34.6534 26.5V29.875ZM34.6534 24.25C34.6534 24.3495 34.6139 24.4448 34.5436 24.5152C34.4733 24.5855 34.3779 24.625 34.2784 24.625H33.4347L33.0072 23.125H34.2784C34.3779 23.125 34.4733 23.1645 34.5436 23.2348C34.6139 23.3052 34.6534 23.4005 34.6534 23.5V24.25Z" fill="white"/>
</svg>
