<svg width="48" height="48" viewBox="0 0 48 48" fill="none" xmlns="http://www.w3.org/2000/svg">
<rect x="0.153442" width="47" height="48" rx="13" fill="#F0BB1F"/>
<path d="M13.698 17.4755C13.4015 17.4755 13.1588 17.2328 13.1534 16.9363V13.5446C13.1534 13.2426 13.3961 13 13.698 13H17.0897C17.3863 13 17.6289 13.2426 17.6289 13.5446V14.7255H30.678V13.5446C30.678 13.248 30.9206 13.0054 31.2172 13H34.6088C34.9054 13 35.1481 13.2426 35.1534 13.5446V16.9363C35.1534 17.2328 34.9108 17.4755 34.6088 17.4755H33.428V30.5245H34.6088C34.9054 30.5245 35.1481 30.7672 35.1534 31.0637V34.4554C35.1534 34.752 34.9108 34.9946 34.6088 35H31.2172C30.9206 35 30.678 34.7574 30.678 34.4554V33.2745H17.6289V34.4554C17.6289 34.752 17.3863 34.9946 17.0897 35H13.698C13.4015 35 13.1588 34.7574 13.1534 34.4554V31.0637C13.1534 30.7672 13.3961 30.5245 13.698 30.5245H14.8789V17.4755H13.698ZM34.075 16.3971V14.0784H31.7564V16.3971H34.075ZM31.7564 33.9216H34.075V31.6029H31.7564V33.9216ZM17.6289 31.0637V32.1961H30.678V31.0637C30.678 30.7672 30.9206 30.5245 31.2172 30.5245H32.3495V17.4755H31.2172C30.9206 17.4755 30.678 17.2328 30.678 16.9363V15.8039H17.6289V16.9363C17.6289 17.2328 17.3863 17.4755 17.0897 17.4755H15.9574V30.5245H17.0897C17.3863 30.5245 17.6289 30.7672 17.6289 31.0637ZM14.2319 31.6029V33.9216H16.5505V31.6029H14.2319ZM16.5505 16.3971V14.0784H14.2319V16.3971H16.5505Z" fill="white"/>
</svg>
