<svg width="101" height="86" viewBox="0 0 101 86" fill="none" xmlns="http://www.w3.org/2000/svg">
<g filter="url(#filter0_d_1_357)">
<path d="M96.1534 60C96.1534 69.9411 88.0946 78 78.1534 78L51.1534 78C48.392 78 46.1534 75.7614 46.1534 73L46.1534 39C46.1534 33.4772 50.6306 29 56.1534 29L91.1534 29C93.9149 29 96.1534 31.2386 96.1534 34L96.1534 60Z" fill="#FFF1DA"/>
<path d="M27.6804 50.6574L25.7923 49.7535L14.5757 66.3382H27.0936L28.2999 65.5516V51.225L27.6804 50.6574Z" fill="#407093"/>
<path d="M25.963 49.8353L21.7179 47.803H20.9178L8.91406 65.5516L9.62869 66.3382H14.8017L25.963 49.8353Z" fill="#365E7D"/>
<path d="M30.5535 65.5515H14.001C13.249 65.5515 12.6394 66.161 12.6394 66.9131V68.6385C12.6394 69.3903 13.2489 69.9998 14.0007 69.9999H30.5535C31.3054 69.9999 31.9151 69.3904 31.9151 68.6385V66.9131C31.9151 66.161 31.3054 65.5515 30.5535 65.5515Z" fill="#4A80AA"/>
<path d="M12.9212 68.6385V66.9131C12.9212 66.1611 13.5308 65.5515 14.2828 65.5515H5.51502C4.76307 65.5515 4.15344 66.161 4.15344 66.9131V68.6385C4.15344 69.3904 4.76307 69.9999 5.51502 69.9999H14.2826C13.5307 69.9999 12.9212 69.3904 12.9212 68.6385Z" fill="#407093"/>
<path d="M25.3932 39.9827C24.8836 41.0338 24.5957 42.2123 24.5957 43.459C24.5957 46.8659 26.7291 49.7721 29.7317 50.9218C31.0208 50.5179 32.1662 49.7893 33.071 48.8301V47.0893L25.3932 39.9827Z" fill="#4A80AA"/>
<path d="M24.7301 43.4863C24.7301 42.2684 25.0118 41.1173 25.5104 40.0909L23.0562 37.8192H22.0603C20.5544 39.2399 19.6129 41.2525 19.6129 43.4862C19.6129 47.7893 23.1011 51.2775 27.4042 51.2775C28.3005 51.2775 29.1601 51.1237 29.9613 50.8449C26.9163 49.7856 24.7301 46.8921 24.7301 43.4863Z" fill="#407093"/>
<path d="M69.9655 0.924695C68.7325 -0.308232 66.7336 -0.308232 65.5008 0.924695L62.4879 3.93756V4.31941L66.2484 8.23954L66.9526 8.40223L69.9653 5.38937C71.1984 4.15658 71.1984 2.15762 69.9655 0.924695Z" fill="#FFD086"/>
<path d="M70.7983 2.41492C70.6668 1.86915 70.3915 1.35085 69.9655 0.924695C68.7325 -0.308232 66.7336 -0.308232 65.5008 0.924695L62.4879 3.93756V4.31941L64.4817 6.3978C65.6703 5.16091 66.8505 3.94029 67.4574 3.3334C68.4691 2.32182 69.9467 2.31403 70.7983 2.41492Z" fill="#FFC365"/>
<path d="M59.6509 8.95026C59.6163 8.95026 59.5813 8.94848 59.5462 8.94507L24.7297 5.51808C24.1491 5.46094 23.7249 4.944 23.782 4.36336C23.8392 3.78272 24.3564 3.35875 24.9367 3.41549L59.7532 6.84234C60.3337 6.89949 60.758 7.41642 60.7009 7.99706C60.6472 8.5427 60.1877 8.95026 59.6509 8.95026Z" fill="#365E7D"/>
<path d="M34.7994 15.4681C34.3308 15.4681 33.9028 15.1539 33.7784 14.6795C33.6303 14.1151 33.9679 13.5377 34.5321 13.3896L59.3822 6.87154C59.9464 6.72374 60.524 7.06103 60.672 7.6254C60.82 8.18964 60.4826 8.76714 59.9182 8.9152L35.0682 15.4333C34.9782 15.4568 34.888 15.4681 34.7994 15.4681Z" fill="#407093"/>
<path d="M66.4 47.136C65.8628 47.136 65.4033 46.7281 65.3498 46.1823L61.9442 11.3445C61.8874 10.764 62.3121 10.2472 62.8927 10.1903C63.4734 10.1362 63.99 10.5584 64.0468 11.139L67.4524 45.9768C67.5092 46.5573 67.0845 47.0741 66.5039 47.131C66.469 47.1342 66.4343 47.136 66.4 47.136Z" fill="#365E7D"/>
<path d="M56.3787 37.2475C56.2891 37.2475 56.1981 37.2359 56.1073 37.212C55.5433 37.0624 55.2074 36.4841 55.357 35.9201L61.971 10.9741C62.1204 10.41 62.6986 10.0746 63.2627 10.2236C63.8267 10.3732 64.1626 10.9515 64.013 11.5155L57.399 36.4615C57.2736 36.9348 56.8461 37.2475 56.3787 37.2475Z" fill="#407093"/>
<path d="M59.4603 6.96429L62.4808 3.94376L66.9449 8.40782L63.9244 11.4284L59.4603 6.96429Z" fill="#FFC365"/>
<path d="M61.7543 9.24573C62.4803 8.48557 63.614 7.29995 64.7105 6.15999L62.4881 3.9375L59.467 6.95843L61.7543 9.24573Z" fill="#FFA90F"/>
<path d="M64.6043 13.1519C64.334 13.1519 64.0636 13.0487 63.8574 12.8425L58.0479 7.03305C57.6352 6.62044 57.6352 5.95175 58.0479 5.53899C58.4603 5.12665 59.1292 5.12665 59.5418 5.53899L65.3514 11.3484C65.764 11.761 65.764 12.4297 65.3514 12.8425C65.1451 13.0488 64.8748 13.1519 64.6043 13.1519Z" fill="#4A80AA"/>
<path d="M65.2861 49.0376L29.9153 13.36C25.2259 23.9466 24.4116 35.3114 27.9222 45.1115C37.6177 53.8573 52.101 55.2003 65.4343 49.7026L65.2861 49.0376Z" fill="#B5DCFF"/>
<path d="M30.1037 13.55L21.9997 5.37573L21.1876 5.45585C15.478 19.3031 17.1451 34.3917 26.8218 44.0684C27.4079 44.6545 28.0144 45.2107 28.6387 45.7383C24.5596 35.9498 25.2226 24.3077 30.1037 13.55Z" fill="#8BCAFF"/>
<path d="M68.5184 46.5017L32.6449 10.6282C32.2919 10.6826 31.952 10.8431 31.6802 11.1149L30.1198 12.6754C29.7847 13.0105 29.6181 13.4481 29.6133 13.8874L65.3731 49.647C65.9048 50.1787 66.7668 50.1787 67.2985 49.647L68.5185 48.4271C69.0501 47.8955 69.0501 47.0334 68.5184 46.5017Z" fill="#DBEDFF"/>
<path d="M30.1737 12.7021L31.7016 11.1743C31.9829 10.8929 32.3383 10.7318 32.7049 10.6882L24.3886 2.37192C23.8569 1.84022 22.9949 1.84022 22.4631 2.37192L21.243 3.59199C20.7113 4.12369 20.7113 4.9857 21.243 5.5174L29.6762 13.9506C29.6651 13.5 29.8299 13.0459 30.1737 12.7021Z" fill="#B5DCFF"/>
</g>
<defs>
<filter id="filter0_d_1_357" x="0.153442" y="0" width="100" height="86" filterUnits="userSpaceOnUse" color-interpolation-filters="sRGB">
<feFlood flood-opacity="0" result="BackgroundImageFix"/>
<feColorMatrix in="SourceAlpha" type="matrix" values="0 0 0 0 0 0 0 0 0 0 0 0 0 0 0 0 0 0 127 0" result="hardAlpha"/>
<feOffset dy="4"/>
<feGaussianBlur stdDeviation="2"/>
<feComposite in2="hardAlpha" operator="out"/>
<feColorMatrix type="matrix" values="0 0 0 0 0 0 0 0 0 0 0 0 0 0 0 0 0 0 0.25 0"/>
<feBlend mode="normal" in2="BackgroundImageFix" result="effect1_dropShadow_1_357"/>
<feBlend mode="normal" in="SourceGraphic" in2="effect1_dropShadow_1_357" result="shape"/>
</filter>
</defs>
</svg>
