<svg width="154" height="166" viewBox="0 0 154 166" fill="none" xmlns="http://www.w3.org/2000/svg">
<path d="M7.35059 12.6104H11.7119V14.4902H7.35059V19.4316H5.35254V14.4902H0.991211V12.6104H5.35254V8.04492H7.35059V12.6104Z" fill="#FF7152"/>
<path d="M7.35059 47.6104H11.7119V49.4902H7.35059V54.4316H5.35254V49.4902H0.991211V47.6104H5.35254V43.0449H7.35059V47.6104Z" fill="#E5E5E5"/>
<path d="M7.35059 82.6104H11.7119V84.4902H7.35059V89.4316H5.35254V84.4902H0.991211V82.6104H5.35254V78.0449H7.35059V82.6104Z" fill="#E5E5E5"/>
<path d="M42.3506 12.6104H46.7119V14.4902H42.3506V19.4316H40.3525V14.4902H35.9912V12.6104H40.3525V8.04492H42.3506V12.6104Z" fill="#E5E5E5"/>
<path d="M42.3506 47.6104H46.7119V49.4902H42.3506V54.4316H40.3525V49.4902H35.9912V47.6104H40.3525V43.0449H42.3506V47.6104Z" fill="#E5E5E5"/>
<path d="M42.3506 82.6104H46.7119V84.4902H42.3506V89.4316H40.3525V84.4902H35.9912V82.6104H40.3525V78.0449H42.3506V82.6104Z" fill="#E5E5E5"/>
<path d="M42.3506 117.61H46.7119V119.49H42.3506V124.432H40.3525V119.49H35.9912V117.61H40.3525V113.045H42.3506V117.61Z" fill="#E5E5E5"/>
<path d="M77.3506 12.6104H81.7119V14.4902H77.3506V19.4316H75.3525V14.4902H70.9912V12.6104H75.3525V8.04492H77.3506V12.6104Z" fill="#E5E5E5"/>
<path d="M77.3506 47.6104H81.7119V49.4902H77.3506V54.4316H75.3525V49.4902H70.9912V47.6104H75.3525V43.0449H77.3506V47.6104Z" fill="#E5E5E5"/>
<path d="M77.3506 82.6104H81.7119V84.4902H77.3506V89.4316H75.3525V84.4902H70.9912V82.6104H75.3525V78.0449H77.3506V82.6104Z" fill="#6246E5"/>
<path d="M77.3506 117.61H81.7119V119.49H77.3506V124.432H75.3525V119.49H70.9912V117.61H75.3525V113.045H77.3506V117.61Z" fill="#E5E5E5"/>
<path d="M77.3506 152.61H81.7119V154.49H77.3506V159.432H75.3525V154.49H70.9912V152.61H75.3525V148.045H77.3506V152.61Z" fill="#E5E5E5"/>
<path d="M112.351 12.6104H116.712V14.4902H112.351V19.4316H110.353V14.4902H105.991V12.6104H110.353V8.04492H112.351V12.6104Z" fill="#E5E5E5"/>
<path d="M112.351 47.6104H116.712V49.4902H112.351V54.4316H110.353V49.4902H105.991V47.6104H110.353V43.0449H112.351V47.6104Z" fill="#E5E5E5"/>
<path d="M112.351 82.6104H116.712V84.4902H112.351V89.4316H110.353V84.4902H105.991V82.6104H110.353V78.0449H112.351V82.6104Z" fill="#E5E5E5"/>
<path d="M112.351 117.61H116.712V119.49H112.351V124.432H110.353V119.49H105.991V117.61H110.353V113.045H112.351V117.61Z" fill="#E5E5E5"/>
<path d="M112.351 152.61H116.712V154.49H112.351V159.432H110.353V154.49H105.991V152.61H110.353V148.045H112.351V152.61Z" fill="#E5E5E5"/>
<path d="M147.351 12.6104H151.712V14.4902H147.351V19.4316H145.353V14.4902H140.991V12.6104H145.353V8.04492H147.351V12.6104Z" fill="#E5E5E5"/>
<path d="M147.351 47.6104H151.712V49.4902H147.351V54.4316H145.353V49.4902H140.991V47.6104H145.353V43.0449H147.351V47.6104Z" fill="#E5E5E5"/>
<path d="M147.351 82.6104H151.712V84.4902H147.351V89.4316H145.353V84.4902H140.991V82.6104H145.353V78.0449H147.351V82.6104Z" fill="#E5E5E5"/>
<path d="M147.351 117.61H151.712V119.49H147.351V124.432H145.353V119.49H140.991V117.61H145.353V113.045H147.351V117.61Z" fill="#E5E5E5"/>
<path d="M147.351 152.61H151.712V154.49H147.351V159.432H145.353V154.49H140.991V152.61H145.353V148.045H147.351V152.61Z" fill="#E5E5E5"/>
</svg>
