<svg width="37" height="36" viewBox="0 0 37 36" fill="none" xmlns="http://www.w3.org/2000/svg">
<circle cx="18.1533" cy="18" r="18" fill="#F5F5F5"/>
<g clip-path="url(#clip0_1_197)">
<path d="M24.8078 12.1508C24.439 12.0429 15.4159 11.1445 12.2471 15.4257C10.8436 17.3222 10.8225 19.9221 12.1767 23.1525C11.8332 23.8655 11.5325 24.6166 11.2874 25.4091C11.2129 25.6499 11.3477 25.9052 11.5882 25.9795C11.6331 25.9934 11.6785 26 11.7233 26C11.9178 26 12.0983 25.8744 12.1586 25.6787C14.5738 17.8703 22.4227 14.0927 24.8297 13.1383C25.0639 13.0454 25.3769 12.3174 24.8078 12.1508Z" fill="#84829A"/>
<path d="M13.6252 24.1298C14.9316 24.6778 16.2379 24.9587 17.4525 24.9587C18.5443 24.9587 19.5625 24.7342 20.44 24.279C22.2058 23.363 23.2848 21.6108 23.5604 19.2113C23.8411 16.7659 24.1906 15.2342 24.4822 14.2971C21.8869 15.4943 16.3221 18.5974 13.6252 24.1298Z" fill="#84829A"/>
</g>
<defs>
<clipPath id="clip0_1_197">
<rect width="14" height="14" fill="white" transform="translate(11.1533 12)"/>
</clipPath>
</defs>
</svg>
